<svg xmlns="http://www.w3.org/2000/svg" width="35" height="35" viewBox="0 0 500 500" version="1.1"><path d="M 190.912 187.051 C 161.007 194.138, 146.561 223.607, 160.030 250.052 C 164.853 259.524, 178.276 269.648, 188.570 271.579 C 190.457 271.933, 192 272.625, 192 273.117 C 192 273.609, 185.631 282.602, 177.846 293.102 C 166.632 308.228, 163.984 312.392, 165.096 313.155 C 167.261 314.641, 181.113 313.320, 188.116 310.961 C 196.109 308.268, 204.024 303.017, 209.021 297.090 C 217.723 286.770, 240.246 255.058, 243.532 248.500 C 247.881 239.820, 249.185 232.369, 247.920 223.435 C 245.390 205.575, 231.403 190.943, 213.201 187.115 C 207.124 185.836, 196.169 185.805, 190.912 187.051 M 196.030 212.531 C 191.428 214.596, 189.178 216.734, 186.894 221.210 C 180.502 233.734, 191.439 250.016, 204.587 247.550 C 208.826 246.754, 214.830 241.651, 216.649 237.298 C 222.605 223.044, 209.005 206.708, 196.030 212.531 M 262 231.737 C 258.516 232.385, 258.033 233.545, 258.015 241.316 C 257.990 252.457, 257.135 252, 278.035 252 C 289.029 252, 296 252.378, 296 252.974 C 296 253.510, 289.349 263.298, 281.220 274.724 C 254.796 311.867, 256.691 308.923, 258.107 310.629 C 259.216 311.965, 263.548 312.119, 291.441 311.816 C 322.574 311.478, 323.651 311.400, 328.742 309.114 C 336.012 305.850, 344 296.394, 344 291.053 C 344 290.414, 336.655 289.942, 324.050 289.771 L 304.100 289.500 322.050 262.227 C 331.922 247.227, 340 234.342, 340 233.594 C 340 232.846, 338.988 231.962, 337.750 231.630 C 335.165 230.937, 265.776 231.035, 262 231.737" stroke="none" fill="#e8f7fb" fill-rule="evenodd"/><path d="M 232 50.679 C 189.209 55.065, 152.389 70.433, 120.437 97.242 C 85.583 126.485, 60.639 169.796, 52.904 214.500 C 50.334 229.351, 49.219 259.811, 50.861 270.294 C 51.482 274.257, 52.660 282, 53.479 287.500 C 59.494 327.883, 86.363 374.186, 119.937 402.028 C 145.824 423.493, 170.888 436.427, 201.084 443.900 C 280.242 463.491, 361.497 434.626, 410.442 369.527 C 435.527 336.163, 450 292.685, 450 250.693 C 450 154.642, 383.467 72.823, 290.093 54.045 C 272.474 50.502, 247.722 49.067, 232 50.679 M 190.912 187.051 C 161.007 194.138, 146.561 223.607, 160.030 250.052 C 164.853 259.524, 178.276 269.648, 188.570 271.579 C 190.457 271.933, 192 272.625, 192 273.117 C 192 273.609, 185.631 282.602, 177.846 293.102 C 166.632 308.228, 163.984 312.392, 165.096 313.155 C 167.261 314.641, 181.113 313.320, 188.116 310.961 C 196.109 308.268, 204.024 303.017, 209.021 297.090 C 217.723 286.770, 240.246 255.058, 243.532 248.500 C 247.881 239.820, 249.185 232.369, 247.920 223.435 C 245.390 205.575, 231.403 190.943, 213.201 187.115 C 207.124 185.836, 196.169 185.805, 190.912 187.051 M 196.030 212.531 C 191.428 214.596, 189.178 216.734, 186.894 221.210 C 180.502 233.734, 191.439 250.016, 204.587 247.550 C 208.826 246.754, 214.830 241.651, 216.649 237.298 C 222.605 223.044, 209.005 206.708, 196.030 212.531 M 262 231.737 C 258.516 232.385, 258.033 233.545, 258.015 241.316 C 257.990 252.457, 257.135 252, 278.035 252 C 289.029 252, 296 252.378, 296 252.974 C 296 253.510, 289.349 263.298, 281.220 274.724 C 254.796 311.867, 256.691 308.923, 258.107 310.629 C 259.216 311.965, 263.548 312.119, 291.441 311.816 C 322.574 311.478, 323.651 311.400, 328.742 309.114 C 336.012 305.850, 344 296.394, 344 291.053 C 344 290.414, 336.655 289.942, 324.050 289.771 L 304.100 289.500 322.050 262.227 C 331.922 247.227, 340 234.342, 340 233.594 C 340 232.846, 338.988 231.962, 337.750 231.630 C 335.165 230.937, 265.776 231.035, 262 231.737" stroke="none" fill="#5c14eb" fill-rule="evenodd"/></svg>